<svg version="1.2" xmlns="http://www.w3.org/2000/svg" viewBox="0 0 800 800" width="120" height="120">
	<title>3fe69bd6-09b2-43f8-a0be-9c78de394b50</title>
	<style>
		.s0 { fill: #ffffff } 
	</style>
	<g>
		<path class="s0" d="m736 82.2c0 58.4-0.1 60.6-2 64.6-4.8 9.8-25.4 55.1-27 59-1.7 4.4-1.7 4.4-54.5 25.3-52.9 20.9-52.9 20.9-73.9 20.9-21 0-21 0-52.8-15-31.8-15.1-31.8-15.1-79.1-9.3-47.3 5.7-47.3 5.7-94.3 0.5-46.9-5.1-46.9-5.1-78.5 10.2-31.6 15.3-31.6 15.3-52.3 16.1-17.3 0.6-21.1 0.5-23.9-0.8-2.9-1.3-98-37.8-101.7-39-0.8-0.2-8.3-15.2-16.7-33.3-15.1-32.9-15.1-32.9-15.8-93.7-0.4-33.4-1.1-60.7-1.5-60.7-0.4 0-8.7 12.1-18.4 26.8-17.6 26.9-17.6 26.9-17.6 97.8 0 71 0 71 11.8 106 11.8 34.9 11.8 34.9 27.3 45.2 8.5 5.7 21.7 14.4 29.4 19.3 7.7 5 14 9.4 14 9.9 0 0.7-23.9 27.5-53.3 59.8-6.3 6.9-11 12.8-10.5 13.3 0.7 0.7 84.7 25.9 86.3 25.9 0.4 0 8.6-4.9 18.3-11 17.8-10.9 17.8-10.9 38.5-7.9 11.4 1.7 20.8 3.2 21 3.4 0.2 0.2-0.6 3.4-1.7 7.2-1.1 3.7-3.9 14.1-6.2 23.1-4.2 16.4-4.2 16.4 8.8 29.5 13.1 13.2 13.1 13.2 47.8 88.7 19.1 41.5 35.1 75.9 35.6 76.4 2.3 2.5 0.8 3.6-5.1 3.6-4.6 0-6.2 0.4-6.7 1.6-0.3 0.8 0 10.9 0.7 22.2 1.2 20.7 1.2 20.7 6.7 37.2 3 9.1 6 17 6.6 17.7 0.7 0.6 8.6 4 17.7 7.5 14.4 5.6 20.8 8.9 51.2 26.6 19.1 11.1 35.1 20.2 35.7 20.2 0.5 0 16.9-9.4 36.3-21 31.3-18.6 37.2-21.7 52-27.5 10.4-4.1 16.9-7.2 17.3-8.3 0.4-0.9 2.9-8.1 5.6-16 4.8-14.2 4.9-14.6 6.4-35.3 2.1-29.1 2.7-25.9-5-25.9-5.6 0-6.5-0.3-6.5-1.8 0-1 0.4-2.2 0.9-2.7 0.5-0.6 15.9-33.6 34.1-73.5 18.3-39.9 34.1-74.3 35.2-76.5 1.1-2.2 7.6-9.7 14.4-16.6 7.5-7.6 12.2-13.2 11.9-14-1.1-3.2-11.5-43.2-11.5-44.5 0-0.9 1.1-1.4 2.9-1.4 3.2 0 34.7-4.7 37-5.6 0.8-0.2 3.3 0.8 5.5 2.3 2.3 1.4 10.3 6.4 17.9 11 13.9 8.3 13.9 8.3 56.9-4.9 23.7-7.3 43.3-13.8 43.5-14.4 0.2-0.6-14.1-16.8-31.6-36-17.6-19.2-32.1-35.5-32.1-36.1 0-0.7 1.5-2 3.2-2.9 5.1-2.6 53.1-34.9 54.6-36.7 0.7-0.8 6.4-17 12.7-35.8 11.5-34.4 11.5-34.4 11.5-105.9 0-71.5 0-71.5-17.2-97.2-9.4-14.2-17.7-26.3-18.5-26.9-1.1-1-1.3 8.9-1.3 59.3zm-206 347.9c0 20-0.3 25.9-1.2 25.9-0.7 0-15.9-1.6-33.8-3.5-17.9-1.9-34.9-3.6-37.9-3.8-3-0.2-5.6-0.8-5.8-1.3-0.2-0.5 2.6-2.4 6.1-4.1 3.5-1.8 11.3-6.2 17.3-9.8 10.8-6.7 10.8-6.7 12.3-4.4 4.1 6.2 10.1 13.9 10.9 13.9 0.5 0 2.3-5.3 4.1-11.8 1.7-6.4 3.3-12.2 3.5-12.8 0.2-0.6 3.9-3.2 8.2-5.7 4.3-2.5 9.3-5.7 11.2-7.1 1.9-1.4 3.8-2.3 4.2-2 0.5 0.3 0.9 12.2 0.9 26.5zm-256.1-23.7c1.4 1.7 14.5 9.6 15.9 9.6 2.1 0 3.9 3.7 7.2 15.3 1.9 6.6 4 12.2 4.5 12.4 0.6 0.1 3.4-3.1 6.3-7.2 3-4.1 6-7.5 6.7-7.5 0.7 0 6 2.8 11.7 6.2 5.6 3.3 12.9 7.4 16.1 9 6.2 3.1 7.3 4.8 3.1 4.8-3.1 0-68.5 7.7-72.6 8.6-2.8 0.6-2.8 0.6-2.8-26 0-21.9 0.2-26.6 1.4-26.6 0.7 0 1.9 0.6 2.5 1.4zm112.4 208c6.7 11.5 12.7 21.1 13.3 21.3 1 0.3 16-24.3 23.5-38.5 1.3-2.3 2.7-4.2 3.2-4.2 0.5 0 8.7 7.5 18.4 16.7 16 15.4 18.3 17.2 27.6 22 5.6 2.8 10.9 5.4 11.9 5.6 2.5 0.7 2.2 2.4-0.4 3.2-1.3 0.4-9.4 4.1-18.1 8.3-11.7 5.6-15.9 8.1-16.2 9.6-0.9 4-7.5 52.5-7.5 55 0 1.6-0.6 2.6-1.5 2.6-1.2 0-1.5-1.4-1.5-6.9 0-6.2-2.3-50.3-3.4-64.4-0.4-5.8-0.4-5.8 5.4-8.7 6.8-3.5 8.8-5.6 4.4-4.8-1.6 0.4-12.5 2.3-24.3 4.4-21.4 3.8-21.4 3.8-44.3 0-12.6-2.1-23.2-3.5-23.5-3.2-0.5 0.5 1.6 1.9 8.6 5.8 2.6 1.4 2.9 2 2.5 5.5-0.8 7.2-3.4 55.5-3.4 63.9 0 4.8-0.4 8.6-1.1 8.9-1.7 1.1-2.1 0-2.5-6.2-0.4-5.5-5.8-44.5-7-50.7-0.5-2.5-2.1-3.6-14.3-9.3-7.5-3.6-15.4-7.1-17.5-7.8-2.2-0.6-4.1-1.6-4.3-2.1-0.2-0.5 4.9-3.7 11.3-6.9 11.2-5.8 12.3-6.6 29.3-23.2 9.7-9.5 17.9-17.1 18.3-17 0.4 0.1 6.3 9.6 13.1 21.1zm34.2 104.2c10.5 4.2 20.3 8 22 8.3 3.3 0.7 4.9 4.1 1.9 4.1-1 0-11.4 4.3-23.2 9.6-21.5 9.5-21.5 9.5-26.6 7.1-11.9-5.6-38.4-16.7-40-16.7-4 0-0.4-2.4 8.9-6 5.5-2.1 15.9-6.3 23-9.3 7.2-3 13.5-5.4 14-5.2 0.6 0.2 9.6 3.8 20 8.1z"/>
	</g>
</svg>